<svg width="24" height="30" viewBox="0 0 24 30" fill="none" xmlns="http://www.w3.org/2000/svg">
<path d="M19.9717 15.7697C19.9585 13.4294 20.9779 11.6656 23.0366 10.3651C21.8852 8.64933 20.1433 7.70567 17.8471 7.5238C15.673 7.34536 13.2944 8.8415 12.4234 8.8415C11.503 8.8415 9.39816 7.58557 7.74203 7.58557C4.32418 7.64047 0.691895 10.42 0.691895 16.0751C0.691895 17.7462 0.985512 19.4723 1.57275 21.2498C2.35793 23.5901 5.18854 29.3241 8.14121 29.2315C9.68518 29.1937 10.7772 28.0922 12.7863 28.0922C14.7361 28.0922 15.7456 29.2315 17.4677 29.2315C20.4468 29.1868 23.0069 23.9744 23.7525 21.6273C19.7573 19.6679 19.9717 15.8898 19.9717 15.7697ZM16.5044 5.30362C18.177 3.23786 18.0253 1.3574 17.9758 0.681396C16.4978 0.770615 14.7889 1.728 13.8156 2.90501C12.7434 4.1678 12.1133 5.72913 12.2486 7.48949C13.8453 7.61645 15.3035 6.76201 16.5044 5.30362Z" fill="#333333"/>
</svg>
