<?xml version="1.0" standalone="no"?>
<!DOCTYPE svg PUBLIC "-//W3C//DTD SVG 20010904//EN"
 "http://www.w3.org/TR/2001/REC-SVG-20010904/DTD/svg10.dtd">
<svg version="1.0" xmlns="http://www.w3.org/2000/svg"
 width="200.000000pt" height="200.000000pt" viewBox="0 0 200.000000 200.000000"
 preserveAspectRatio="xMidYMid meet">
<metadata>
Created by potrace 1.16, written by Peter Selinger 2001-2019
</metadata>
<g transform="translate(0.000000,200.000000) scale(0.100000,-0.100000)"
fill="#000000" stroke="none">
<path d="M1027 1979 c-43 -23 -83 -79 -92 -130 -17 -93 58 -201 149 -214 120
-18 219 63 219 181 0 67 -34 128 -89 160 -52 31 -132 32 -187 3z"/>
<path d="M436 1764 c-232 -74 -327 -351 -189 -552 43 -62 97 -105 173 -133 44
-17 71 -20 141 -17 109 5 177 36 248 113 65 72 93 145 93 245 0 144 -71 259
-198 321 -79 39 -188 49 -268 23z m316 -231 c95 -102 70 -251 -54 -314 -56
-29 -113 -24 -87 8 6 7 21 13 33 13 32 0 84 36 106 72 37 60 23 155 -29 202
-12 11 -21 25 -21 33 0 22 24 15 52 -14z"/>
<path d="M1258 1415 c-120 -39 -239 -160 -274 -282 -25 -85 -16 -221 19 -297
59 -129 161 -212 295 -242 292 -65 560 183 515 477 -22 142 -103 253 -231 316
-71 36 -82 38 -176 40 -68 2 -117 -2 -148 -12z m384 -282 c88 -94 84 -237 -9
-325 -54 -52 -170 -87 -188 -58 -11 18 15 40 47 40 33 0 95 29 120 57 65 71
61 192 -9 265 -25 26 -24 48 1 48 7 0 24 -12 38 -27z"/>
<path d="M650 921 c-77 -40 -105 -145 -60 -219 62 -101 220 -96 272 8 68 135
-79 282 -212 211z"/>
<path d="M850 581 c-154 -47 -242 -216 -196 -373 23 -79 97 -159 174 -188 154
-59 336 21 386 168 20 58 20 156 0 214 -37 110 -153 189 -274 187 -36 0 -76
-4 -90 -8z"/>
</g>
</svg>
