<?xml version="1.0" standalone="no"?>
<!DOCTYPE svg PUBLIC "-//W3C//DTD SVG 20010904//EN"
 "http://www.w3.org/TR/2001/REC-SVG-20010904/DTD/svg10.dtd">
<svg version="1.0" xmlns="http://www.w3.org/2000/svg"
 width="200.000000pt" height="200.000000pt" viewBox="0 0 200.000000 200.000000"
 preserveAspectRatio="xMidYMid meet">

<g transform="translate(0.000000,200.000000) scale(0.100000,-0.100000)"
fill="#000000" stroke="none">
<path d="M742 1574 c-45 -8 -95 -20 -111 -28 -60 -31 -110 -114 -111 -181 0
-28 -10 -39 -45 -50 l-30 -10 0 -105 0 -105 33 -10 32 -9 0 -251 c0 -271 3
-285 56 -305 19 -7 24 -17 24 -43 0 -59 15 -68 105 -65 l80 3 3 48 3 47 219 0
219 0 3 -47 3 -48 80 -3 c90 -3 105 6 105 65 0 26 5 36 24 43 53 20 56 34 56
305 l0 251 33 9 32 10 0 105 0 105 -30 10 c-35 11 -45 22 -45 50 -1 67 -51
150 -111 180 -81 42 -448 59 -627 29z m666 -432 l2 -243 -33 -14 c-156 -65
-598 -65 -754 0 l-33 14 0 239 c0 131 3 242 7 245 4 4 187 6 407 5 l401 -3 3
-243z m-664 -403 c54 -64 17 -148 -67 -149 -53 0 -87 35 -87 90 0 56 34 90 89
90 32 0 44 -6 65 -31z m640 0 c15 -17 26 -43 26 -59 0 -16 -11 -42 -26 -59
-64 -76 -192 -2 -154 89 17 41 46 60 91 60 29 0 43 -7 63 -31z"/>
</g>
</svg>
