<svg width="17" height="17" viewBox="0 0 17 17" fill="none" xmlns="http://www.w3.org/2000/svg">
<path d="M11.9182 5.0641C11.8426 4.98851 11.7475 4.93545 11.6435 4.91084C11.5396 4.88624 11.4308 4.89108 11.3294 4.92481L6.14919 6.65154C6.06435 6.67982 5.98726 6.72747 5.92402 6.79071C5.86079 6.85395 5.81314 6.93104 5.78485 7.01588L4.05813 12.196C4.02431 12.2975 4.0194 12.4063 4.04395 12.5103C4.06851 12.6144 4.12155 12.7095 4.19715 12.7851C4.27274 12.8607 4.36789 12.9138 4.47194 12.9383C4.57599 12.9629 4.68481 12.958 4.78623 12.9242L9.9664 11.1974C10.0512 11.1691 10.1283 11.1215 10.1916 11.0583C10.2548 10.995 10.3025 10.9179 10.3307 10.8331L12.0575 5.65292C12.0912 5.55151 12.096 5.44272 12.0714 5.33873C12.0468 5.23473 11.9938 5.13964 11.9182 5.0641ZM5.51433 11.4685L6.78635 7.65361L9.32982 10.1971L5.51433 11.4685Z" fill="#333333"/>
<path d="M8.05805 16.9827C6.46432 16.9827 4.90638 16.5101 3.58124 15.6246C2.2561 14.7392 1.22328 13.4807 0.613386 12.0083C0.00349142 10.5359 -0.156085 8.91569 0.154837 7.35258C0.465758 5.78947 1.23321 4.35367 2.36015 3.22673C3.48709 2.09979 4.9229 1.33234 6.486 1.02141C8.04911 0.710492 9.66932 0.870069 11.1417 1.47996C12.6141 2.08986 13.8726 3.12268 14.7581 4.44782C15.6435 5.77295 16.1161 7.3309 16.1161 8.92463C16.1137 11.061 15.2639 13.1092 13.7533 14.6198C12.2426 16.1305 10.1944 16.9802 8.05805 16.9827ZM8.05805 2.01773C6.692 2.01773 5.35662 2.42281 4.22078 3.18175C3.08495 3.94069 2.19968 5.0194 1.67691 6.28147C1.15414 7.54354 1.01736 8.93229 1.28387 10.2721C1.55037 11.6119 2.20819 12.8426 3.17414 13.8085C4.14008 14.7745 5.37077 15.4323 6.71058 15.6988C8.05039 15.9653 9.43913 15.8285 10.7012 15.3058C11.9633 14.783 13.042 13.8977 13.8009 12.7619C14.5599 11.6261 14.9649 10.2907 14.9649 8.92463C14.9628 7.09346 14.2344 5.3379 12.9396 4.04307C11.6448 2.74824 9.88922 2.01986 8.05805 2.01773Z" fill="#333333"/>
</svg>
