<?xml version="1.0" standalone="no"?>
<!DOCTYPE svg PUBLIC "-//W3C//DTD SVG 20010904//EN"
 "http://www.w3.org/TR/2001/REC-SVG-20010904/DTD/svg10.dtd">
<svg version="1.0" xmlns="http://www.w3.org/2000/svg"
 width="921.000000pt" height="995.000000pt" viewBox="0 0 921.000000 995.000000"
 preserveAspectRatio="xMidYMid meet">

<g transform="translate(0.000000,995.000000) scale(0.100000,-0.100000)"
fill="#000000" stroke="none">
<path d="M950 9210 l0 -490 155 0 155 0 0 -165 0 -165 -470 0 -470 0 0 -235 0
-235 105 0 105 0 0 -3685 0 -3685 635 0 635 0 0 900 0 900 670 0 670 0 0 -900
0 -900 33 4 c17 3 152 5 300 5 l267 1 0 124 c0 116 1 125 24 149 13 14 40 29
60 32 l35 7 3 512 3 511 143 395 c79 217 156 417 170 443 14 27 50 71 79 97
l53 49 0 2520 0 2521 105 0 105 0 0 235 0 235 -470 0 -470 0 2 163 3 162 158
3 157 3 -2 487 -3 487 -1472 3 -1473 2 0 -490z m1525 259 c31 -62 58 -104 70
-109 11 -4 66 -13 123 -20 56 -7 102 -15 102 -17 0 -2 -39 -41 -86 -86 l-87
-83 21 -119 c11 -66 19 -121 18 -122 -1 -1 -50 23 -109 53 l-108 55 -106 -55
c-59 -31 -107 -56 -108 -56 -1 0 7 55 18 121 l20 121 -86 85 c-47 46 -80 86
-74 88 7 2 48 9 92 15 145 20 130 10 188 126 28 57 54 104 57 104 3 0 28 -46
55 -101z m-631 -275 c20 -48 44 -64 96 -64 42 0 43 -13 4 -51 -35 -33 -36 -35
-29 -91 3 -32 4 -58 1 -58 -3 0 -26 10 -51 22 l-45 22 -45 -22 c-25 -12 -48
-22 -51 -22 -3 0 -3 26 1 58 6 56 6 58 -29 91 -39 38 -38 51 4 51 53 0 77 16
95 64 10 25 20 46 24 46 3 0 14 -21 25 -46z m1266 -60 c86 -13 84 -10 39 -51
l-41 -37 7 -58 c4 -32 3 -58 -2 -58 -4 0 -26 11 -48 24 l-40 23 -48 -24 c-27
-14 -51 -22 -54 -20 -2 3 0 28 5 55 9 50 9 51 -29 88 -42 41 -42 54 -1 54 55
0 73 12 99 64 l26 51 25 -53 c23 -45 31 -53 62 -58z m-1725 -33 c24 -48 26
-50 80 -56 30 -4 55 -10 55 -14 0 -3 -18 -22 -40 -41 l-41 -35 11 -54 c5 -30
8 -56 5 -59 -2 -2 -24 7 -49 22 l-46 27 -51 -26 c-28 -15 -52 -25 -54 -23 -2
2 1 27 7 57 l9 54 -41 42 -42 42 56 7 c55 7 57 9 81 57 14 27 27 49 30 49 3 0
16 -22 30 -49z m2130 0 c24 -48 26 -50 80 -56 30 -4 55 -9 55 -11 0 -2 -18
-20 -40 -41 l-41 -38 11 -54 c5 -30 8 -56 6 -59 -3 -2 -26 8 -53 22 l-47 27
-49 -27 c-26 -14 -50 -24 -53 -21 -2 2 1 28 7 57 l11 52 -42 43 -42 42 56 7
c55 7 57 9 81 57 14 27 27 49 30 49 3 0 16 -22 30 -49z m-1165 -546 l0 -165
-480 0 -480 0 0 158 c0 87 3 162 7 165 3 4 219 7 480 7 l473 0 0 -165z m1100
0 l0 -165 -480 0 -480 0 0 165 0 165 480 0 480 0 0 -165z m-1870 -1190 l0
-325 -320 0 -320 0 0 325 0 325 320 0 320 0 0 -325z m1160 0 l0 -325 -320 0
-320 0 0 325 0 325 320 0 320 0 0 -325z m1160 0 l0 -325 -320 0 -320 0 0 325
0 325 320 0 320 0 0 -325z m-2320 -1015 l0 -320 -320 0 -320 0 0 320 0 320
320 0 320 0 0 -320z m1160 0 l0 -320 -320 0 -320 0 0 320 0 320 320 0 320 0 0
-320z m1160 0 l0 -320 -320 0 -320 0 0 320 0 320 320 0 320 0 0 -320z m-2320
-1020 l0 -320 -320 0 -320 0 0 320 0 320 320 0 320 0 0 -320z m1160 0 l0 -320
-320 0 -320 0 0 320 0 320 320 0 320 0 0 -320z m1160 0 l0 -320 -320 0 -320 0
0 320 0 320 320 0 320 0 0 -320z m-2320 -1020 l0 -320 -320 0 -320 0 0 320 0
320 320 0 320 0 0 -320z m1160 0 l0 -320 -320 0 -320 0 0 320 0 320 320 0 320
0 0 -320z m1160 0 l0 -320 -320 0 -320 0 0 320 0 320 320 0 320 0 0 -320z
m-2319 -694 c2 -2 3 -149 1 -325 l-3 -321 -319 0 -320 0 0 325 0 325 318 0
c175 0 321 -2 323 -4z m1159 -321 l0 -325 -320 0 -320 0 0 325 0 325 320 0
320 0 0 -325z m1160 0 l0 -325 -320 0 -320 0 0 325 0 325 320 0 320 0 0 -325z"/>
<path d="M4330 5365 l0 -2485 26 10 c14 6 93 10 176 10 141 0 150 1 155 20 7
25 6 25 343 0 246 -18 368 -20 1668 -20 l1402 0 0 1804 0 1803 -42 16 c-24 9
-500 179 -1058 378 -558 198 -1386 493 -1839 655 -453 162 -825 294 -827 294
-2 0 -4 -1118 -4 -2485z m645 1611 l280 -104 3 -471 c2 -417 0 -471 -13 -471
-15 0 -543 158 -557 167 -5 2 -8 224 -8 494 0 269 3 489 8 489 4 0 133 -47
287 -104z m1253 -466 l222 -83 0 -429 c0 -235 -3 -428 -7 -428 -5 -1 -133 37
-285 82 l-278 83 0 452 0 452 63 -23 c34 -13 162 -61 285 -106z m1134 -422
l278 -103 0 -387 c0 -214 -3 -388 -7 -388 -5 0 -132 38 -283 83 l-275 83 -3
407 c-1 224 1 407 5 407 5 0 133 -46 285 -102z m-2386 -463 c150 -41 276 -75
279 -75 3 0 5 -214 5 -476 l0 -476 -22 5 c-13 3 -141 29 -285 58 l-263 52 -2
493 c-2 279 1 494 6 494 5 0 132 -34 282 -75z m1314 -357 l155 -43 3 -434 c2
-345 0 -432 -10 -429 -7 3 -136 29 -285 59 l-273 54 0 451 0 452 128 -34 c70
-19 197 -53 282 -76z m1024 -278 c121 -34 245 -68 274 -76 l52 -15 0 -384 0
-385 -22 0 c-13 1 -140 25 -283 53 l-260 53 -3 407 c-2 298 1 407 9 407 6 0
111 -27 233 -60z m-2365 -711 c130 -22 252 -44 271 -48 l35 -7 3 -472 c2 -374
0 -472 -10 -472 -7 0 -136 12 -285 27 l-273 27 0 493 c0 364 3 493 11 493 7 0
118 -18 248 -41z m1216 -209 c132 -22 250 -42 263 -45 l22 -5 0 -432 0 -431
-47 6 c-27 3 -155 16 -285 28 l-238 23 0 453 0 453 23 -5 c12 -2 130 -23 262
-45z m1475 -642 c0 -214 -4 -388 -9 -388 -19 0 -498 50 -528 55 l-33 6 0 407
0 408 285 -50 285 -50 0 -388z"/>
<path d="M4380 2789 c-32 -13 -66 -45 -92 -87 -24 -39 -297 -789 -290 -797 3
-3 1119 -5 2479 -5 2259 0 2477 1 2506 16 70 35 107 88 107 151 0 23 -23 92
-56 173 -30 74 -85 207 -120 296 -69 170 -106 227 -160 250 -28 12 -381 14
-2191 13 -1409 0 -2167 -4 -2183 -10z m500 -379 l0 -160 -321 0 c-302 0 -321
1 -314 18 8 21 90 237 104 275 l11 27 260 0 260 0 0 -160z m610 0 l0 -160
-260 0 -260 0 0 160 0 160 260 0 260 0 0 -160z m600 0 l0 -160 -260 0 -260 0
0 160 0 160 260 0 260 0 0 -160z m600 0 l0 -160 -260 0 -260 0 0 160 0 160
260 0 260 0 0 -160z m600 0 l0 -160 -260 0 -260 0 0 160 0 160 260 0 260 0 0
-160z m778 -2 l3 -158 -351 0 -350 0 0 160 0 160 348 -2 347 -3 3 -157z m694
2 l76 -160 -334 0 -334 0 0 160 0 160 258 0 258 0 76 -160z"/>
<path d="M3982 1833 l3 -38 2478 -3 2477 -2 0 40 0 40 -2481 0 -2480 0 3 -37z"/>
<path d="M3980 1703 c0 -64 7 -62 38 10 l21 47 -30 0 c-29 0 -29 -1 -29 -57z"/>
<path d="M4040 1685 c-18 -42 -31 -78 -28 -80 2 -2 19 30 37 71 18 42 30 78
28 80 -2 2 -18 -30 -37 -71z"/>
<path d="M4705 1752 c6 -5 38 -30 73 -56 l62 -47 0 -365 0 -364 -248 0 -249 0
-155 -80 c-85 -44 -158 -80 -162 -80 -3 0 -6 118 -6 263 0 245 -2 264 -20 287
-20 25 -20 24 -20 -337 l0 -363 -27 -6 c-39 -9 -53 -23 -53 -50 0 -21 5 -24
40 -24 l40 0 0 -55 0 -55 65 0 c62 0 65 1 65 25 0 36 37 127 70 174 63 86 192
151 300 151 108 0 237 -65 300 -151 33 -47 70 -138 70 -174 l0 -25 1317 2
1317 3 8 45 c18 107 107 218 213 266 216 99 484 -42 521 -274 l7 -42 377 0
c207 0 398 3 424 6 46 7 46 7 46 45 l0 39 -385 0 -385 0 0 68 c0 37 5 73 10
78 7 7 9 198 8 555 l-3 544 -1815 3 c-998 1 -1810 -2 -1805 -6z m995 -232 l0
-160 -365 0 -365 0 0 125 c0 112 2 125 18 125 9 1 168 16 352 34 184 19 341
34 348 35 9 1 12 -37 12 -159z m590 0 l0 -160 -260 0 -260 0 0 160 0 160 260
0 260 0 0 -160z m600 0 l0 -160 -260 0 -260 0 0 160 0 160 260 0 260 0 0 -160z
m850 0 l0 -160 -390 0 -390 0 0 160 0 160 390 0 390 0 0 -160z m480 0 l0 -160
-205 0 -205 0 0 160 0 160 205 0 205 0 0 -160z m-72 -607 l3 -23 -1365 0
-1366 0 0 25 0 25 1363 -2 1362 -3 3 -22z m-158 -88 l0 -25 -1360 0 -1360 0 0
25 0 25 1360 0 1360 0 0 -25z m-340 -80 l0 -25 -1365 0 -1365 0 0 25 0 25
1365 0 1365 0 0 -25z"/>
<path d="M8768 1298 l-3 -463 -52 -3 -53 -3 0 -50 0 -49 -75 0 -75 0 0 -55 0
-55 -86 0 -85 0 3 -37 3 -38 298 -3 297 -2 0 610 0 610 -85 0 -85 0 -2 -462z"/>
<path d="M4016 1431 c-16 -17 -16 -24 -5 -58 19 -54 33 -66 26 -21 -3 21 -2
51 3 68 10 34 1 39 -24 11z"/>
<path d="M3850 625 c0 -83 4 -135 10 -135 6 0 10 52 10 135 0 83 -4 135 -10
135 -6 0 -10 -52 -10 -135z"/>
<path d="M4393 725 c-126 -34 -227 -144 -248 -270 -5 -30 -4 -36 4 -25 6 8 11
24 11 35 0 36 48 123 90 165 64 64 138 94 230 94 86 0 146 -22 216 -79 44 -36
104 -140 104 -179 0 -12 5 -28 10 -36 18 -28 11 26 -10 84 -23 61 -85 136
-142 172 -42 27 -136 54 -183 53 -16 0 -54 -7 -82 -14z"/>
<path d="M7790 731 c-132 -28 -250 -150 -265 -273 l-5 -43 14 46 c35 119 93
190 195 237 78 37 183 36 263 0 96 -44 172 -143 185 -238 3 -22 10 -40 15 -40
14 0 -2 70 -30 128 -63 130 -232 213 -372 183z"/>
<path d="M4352 664 c-172 -85 -217 -315 -91 -458 138 -157 389 -122 483 67 21
41 26 65 26 127 0 92 -28 158 -92 215 -61 56 -111 75 -199 75 -61 0 -85 -5
-127 -26z m218 -159 c41 -39 57 -93 42 -143 -18 -60 -62 -95 -124 -99 -91 -7
-152 49 -152 137 0 88 61 144 152 137 41 -3 59 -10 82 -32z"/>
<path d="M4436 434 c-40 -39 -6 -89 57 -85 26 2 43 45 29 76 -14 29 -61 35
-86 9z"/>
<path d="M7735 666 c-104 -49 -169 -151 -169 -266 0 -204 199 -342 396 -274
109 37 188 152 188 275 0 120 -80 237 -188 273 -70 24 -167 21 -227 -8z m192
-146 c46 -28 67 -65 67 -120 0 -88 -61 -144 -152 -137 -61 4 -104 38 -123 95
-39 120 100 229 208 162z"/>
<path d="M7808 425 c-8 -19 -8 -31 0 -50 22 -49 102 -28 102 26 0 49 -82 69
-102 24z"/>
</g>
</svg>
