<svg width="10" height="10" viewBox="0 0 10 10" fill="none" xmlns="http://www.w3.org/2000/svg">
<path d="M9.68429 6.2937L8.64582 5.25523C8.58091 5.19034 8.49288 5.15388 8.40109 5.15388C8.3093 5.15388 8.22127 5.19034 8.15636 5.25523L4.93952 8.47206V10H6.46746L9.68429 6.78317C9.74919 6.71825 9.78564 6.63022 9.78564 6.53843C9.78564 6.44665 9.74919 6.35862 9.68429 6.2937ZM6.18084 9.30769H5.63184V8.75868L7.36262 7.0279L7.91162 7.5769L6.18084 9.30769ZM8.40109 7.08744L7.85208 6.53843L8.40109 5.98943L8.95009 6.53843L8.40109 7.08744ZM3.5549 10H1.47796C1.2944 9.99982 1.11842 9.92682 0.988621 9.79702C0.858827 9.66723 0.785828 9.49124 0.785645 9.30769V0.99993C0.785828 0.816374 0.858827 0.640388 0.988621 0.510593C1.11842 0.380799 1.2944 0.3078 1.47796 0.307617H7.01646C7.20002 0.3078 7.37601 0.380799 7.5058 0.510593C7.63559 0.640388 7.70859 0.816374 7.70878 0.99993V4.4615H7.01646V0.99993H1.47796V9.30769H3.5549V10Z" fill="#FF6A6A"/>
</svg>
