<svg width="15" height="15" viewBox="0 0 15 15" fill="none" xmlns="http://www.w3.org/2000/svg">
<path fill-rule="evenodd" clip-rule="evenodd" d="M5.75462 1.21161C6.11319 0.876446 6.58789 0.689697 7.08131 0.689697C7.57473 0.689697 8.04944 0.876446 8.40801 1.21161C8.40804 1.21164 8.40798 1.21158 8.40801 1.21161L13.1543 5.64709C13.4728 5.94462 13.7265 6.30331 13.8999 6.70119C14.0733 7.09904 14.1627 7.52771 14.1626 7.96092C14.1626 7.96095 14.1626 7.9609 14.1626 7.96092V12.9426C14.1626 13.4491 13.9592 13.9349 13.597 14.293C13.2348 14.6511 12.7436 14.8523 12.2314 14.8523H1.93127C1.41906 14.8523 0.927838 14.6511 0.565655 14.293C0.203472 13.9349 1.16646e-08 13.4491 1.16646e-08 12.9426V7.96099C1.16646e-08 7.96097 1.16646e-08 7.96101 1.16646e-08 7.96099C-3.72848e-05 7.52777 0.089365 7.09904 0.262731 6.70119C0.436093 6.30334 0.689764 5.94468 1.00821 5.64716M1.00821 5.64716L5.75462 1.21161C5.75465 1.21158 5.75459 1.21164 5.75462 1.21161M7.08131 1.96282C6.91683 1.96282 6.75858 2.02508 6.63905 2.13682L1.89255 6.57245C1.70147 6.75097 1.54918 6.96625 1.44515 7.20497C1.34112 7.4437 1.28748 7.70091 1.28751 7.96086V12.9426C1.28751 13.1115 1.35534 13.2734 1.47606 13.3928C1.59679 13.5121 1.76053 13.5792 1.93127 13.5792H12.2314C12.4021 13.5792 12.5658 13.5121 12.6866 13.3928C12.8073 13.2734 12.8751 13.1115 12.8751 12.9426V7.96092C12.8751 7.70098 12.8215 7.4437 12.7175 7.20497C12.6135 6.96625 12.4612 6.75103 12.2701 6.57252L7.52366 2.1369C7.40413 2.02516 7.2458 1.96282 7.08131 1.96282Z" fill="#333333"/>
</svg>
