<?xml version="1.0" standalone="no"?>
<!DOCTYPE svg PUBLIC "-//W3C//DTD SVG 20010904//EN"
 "http://www.w3.org/TR/2001/REC-SVG-20010904/DTD/svg10.dtd">
<svg version="1.0" xmlns="http://www.w3.org/2000/svg"
 width="512.000000pt" height="512.000000pt" viewBox="0 0 512.000000 512.000000"
 preserveAspectRatio="xMidYMid meet">

<g transform="translate(0.000000,512.000000) scale(0.100000,-0.100000)"
fill="#000000" stroke="none">
<path d="M885 4784 c-40 -20 -73 -52 -93 -89 -15 -26 -18 -88 -22 -500 l-5
-470 -203 -5 c-260 -6 -242 10 -242 -215 0 -90 3 -171 6 -180 15 -38 55 -45
254 -45 l190 0 0 -1480 0 -1480 1790 0 1790 0 0 1479 0 1480 206 3 c263 4 244
-13 244 218 0 231 19 214 -242 220 l-203 5 -5 470 c-6 528 -2 503 -83 569
l-39 31 -1656 2 c-1487 3 -1660 1 -1687 -13z m425 -193 c5 -11 10 -74 10 -140
l0 -121 100 0 100 0 0 122 c0 135 9 158 61 158 57 0 59 -14 59 -340 0 -327 -2
-340 -60 -340 -53 0 -60 18 -60 156 l0 124 -100 0 -100 0 0 -128 c0 -140 -4
-152 -55 -152 -17 0 -36 5 -43 12 -16 16 -17 620 -2 649 7 13 21 19 45 19 24
0 38 -6 45 -19z m818 -14 c73 -48 86 -87 90 -273 5 -184 -7 -259 -45 -305 -41
-49 -92 -69 -173 -69 -81 0 -132 20 -173 69 -38 46 -50 121 -45 305 3 140 6
166 25 201 42 80 95 106 204 103 63 -3 82 -8 117 -31z m592 13 c18 -33 8 -73
-20 -87 -14 -7 -46 -13 -72 -13 l-48 0 0 -252 c0 -285 -3 -301 -60 -306 -59
-6 -60 1 -60 295 l0 263 -54 0 c-86 0 -128 45 -90 98 15 21 20 22 204 22 181
0 190 -1 200 -20z m555 4 c10 -10 15 -29 13 -48 -5 -47 -33 -56 -180 -56
l-128 0 0 -80 0 -80 133 0 c104 0 137 -3 155 -16 26 -18 29 -60 5 -86 -14 -16
-33 -18 -155 -18 l-138 0 0 -85 0 -85 136 0 c74 0 144 -5 155 -10 22 -12 27
-68 7 -88 -8 -8 -66 -12 -197 -12 -158 0 -187 2 -203 17 -17 15 -18 38 -18
321 0 270 2 308 17 324 14 16 35 18 199 18 155 0 185 -2 199 -16z m307 -1 c17
-15 18 -37 18 -285 l0 -268 143 0 c156 0 167 -4 167 -55 0 -53 -8 -55 -211
-55 -183 0 -188 1 -203 22 -14 19 -16 67 -16 318 0 251 2 299 16 318 18 26 60
29 86 5z m-1775 -1734 c15 -5 31 -16 35 -22 4 -7 8 -156 8 -332 0 -274 -2
-324 -16 -343 -15 -22 -15 -22 -349 -22 -334 0 -334 0 -349 22 -14 19 -16 69
-16 343 0 176 4 325 8 332 4 7 19 16 32 22 35 14 611 14 647 0z m1096 -8 c15
-12 17 -49 17 -352 0 -324 -1 -339 -19 -349 -30 -16 -662 -14 -684 3 -16 11
-17 41 -15 352 l3 339 25 13 c37 19 650 14 673 -6z m1054 8 c15 -5 31 -16 35
-22 4 -7 8 -156 8 -332 0 -274 -2 -324 -16 -343 -15 -22 -15 -22 -349 -22
-334 0 -334 0 -349 22 -14 19 -16 69 -16 343 0 176 4 325 8 332 4 7 19 16 32
22 35 14 611 14 647 0z m-2123 -1101 c14 -19 16 -69 16 -343 0 -176 -4 -325
-8 -332 -18 -28 -70 -33 -357 -33 -287 0 -339 5 -357 33 -4 7 -8 156 -8 332 0
274 2 324 16 343 15 22 15 22 349 22 334 0 334 0 349 -22z m1039 11 c14 -6 30
-22 36 -36 8 -17 11 -220 11 -678 l0 -655 -360 0 -360 0 0 655 c0 459 3 661
11 679 6 13 21 29 33 34 30 15 597 16 629 1z m1111 -11 c14 -19 16 -69 16
-343 0 -176 -4 -325 -8 -332 -18 -28 -70 -33 -357 -33 -287 0 -339 5 -357 33
-4 7 -8 156 -8 332 0 274 2 324 16 343 15 22 15 22 349 22 334 0 334 0 349
-22z"/>
<path d="M1942 4483 c-7 -3 -19 -18 -27 -33 -21 -41 -21 -319 0 -360 20 -38
72 -56 120 -40 57 19 65 46 65 220 0 157 -9 200 -45 214 -19 7 -94 7 -113 -1z"/>
</g>
</svg>
