<svg width="19" height="19" viewBox="0 0 19 19" fill="none" xmlns="http://www.w3.org/2000/svg">
<path fill-rule="evenodd" clip-rule="evenodd" d="M0 9.5C0 4.25379 4.25379 0 9.5 0C14.7462 0 19 4.25379 19 9.5C19 14.7462 14.7462 19 9.5 19C4.25379 19 0 14.7462 0 9.5ZM9.5 1.52C5.09326 1.52 1.52 5.09326 1.52 9.5C1.52 13.9067 5.09326 17.48 9.5 17.48C13.9067 17.48 17.48 13.9067 17.48 9.5C17.48 5.09326 13.9067 1.52 9.5 1.52Z" fill="#39BA7C"/>
<path fill-rule="evenodd" clip-rule="evenodd" d="M7.71875 8.42483C7.71875 8.03487 8.05104 7.71875 8.46094 7.71875H9.94531C10.3552 7.71875 10.6875 8.03487 10.6875 8.42483V13.5439C10.6875 13.9339 10.3552 14.25 9.94531 14.25C9.53541 14.25 9.20312 13.9339 9.20312 13.5439V9.13091H8.46094C8.05104 9.13091 7.71875 8.81479 7.71875 8.42483Z" fill="#39BA7C"/>
<path fill-rule="evenodd" clip-rule="evenodd" d="M7.125 13.9531C7.125 13.4612 7.444 13.0625 7.8375 13.0625H11.7562C12.1498 13.0625 12.4688 13.4612 12.4688 13.9531C12.4688 14.445 12.1498 14.8438 11.7562 14.8438H7.8375C7.444 14.8438 7.125 14.445 7.125 13.9531Z" fill="#39BA7C"/>
<path d="M9.5 4.15625C9.26513 4.15625 9.03554 4.2259 8.84026 4.35638C8.64498 4.48686 8.49277 4.67233 8.40289 4.88931C8.31301 5.1063 8.2895 5.34507 8.33532 5.57542C8.38114 5.80577 8.49424 6.01736 8.66031 6.18344C8.82639 6.34951 9.03798 6.46261 9.26833 6.50843C9.49868 6.55425 9.73745 6.53074 9.95444 6.44086C10.1714 6.35098 10.3569 6.19877 10.4874 6.00349C10.6179 5.80821 10.6875 5.57862 10.6875 5.34375C10.6875 5.02881 10.5624 4.72676 10.3397 4.50406C10.117 4.28136 9.81494 4.15625 9.5 4.15625Z" fill="#39BA7C"/>
</svg>
