<svg width="16" height="17" viewBox="0 0 16 17" fill="none" xmlns="http://www.w3.org/2000/svg">
<path d="M13.4729 8.96949C13.5037 8.73437 13.5203 8.49759 13.5225 8.26046C13.5203 8.02333 13.5037 7.78655 13.4729 7.55143L15.0079 6.34963C15.0772 6.29668 15.1246 6.22004 15.1409 6.13435C15.1573 6.04867 15.1415 5.95997 15.0965 5.88522L13.643 3.36462C13.6009 3.28902 13.5326 3.23142 13.451 3.20269C13.3694 3.17396 13.2801 3.17607 13.1999 3.20864L11.3883 3.93894C11.0114 3.65124 10.5991 3.41296 10.1617 3.22991L9.88872 1.3049C9.87668 1.21972 9.83408 1.14182 9.76885 1.08573C9.70363 1.02963 9.62023 0.999171 9.53421 1.00002H6.6201C6.53408 0.999171 6.45068 1.02963 6.38546 1.08573C6.32023 1.14182 6.27763 1.21972 6.26559 1.3049L5.99262 3.22991C5.55461 3.41182 5.14225 3.65018 4.766 3.93894L2.94734 3.20864C2.86717 3.17607 2.77785 3.17396 2.69622 3.20269C2.6146 3.23142 2.5463 3.28902 2.5042 3.36462L1.05069 5.88522C1.00575 5.95997 0.989934 6.04867 1.00629 6.13435C1.02264 6.22004 1.07 6.29668 1.13932 6.34963L2.67082 7.55143C2.64006 7.78656 2.62348 8.02333 2.62119 8.26046C2.62336 8.49759 2.63994 8.73437 2.67082 8.96949L1.13932 10.1713C1.07 10.2242 1.02264 10.3009 1.00629 10.3866C0.989934 10.4722 1.00575 10.5609 1.05069 10.6357L2.5042 13.1563C2.5463 13.2319 2.6146 13.2895 2.69622 13.3182C2.77785 13.347 2.86717 13.3448 2.94734 13.3123L4.75891 12.582C5.13586 12.8697 5.54808 13.108 5.98553 13.291L6.2585 15.216C6.27054 15.3012 6.31314 15.3791 6.37837 15.4352C6.44359 15.4913 6.52699 15.5217 6.61301 15.5209H9.52003C9.60605 15.5217 9.68945 15.4913 9.75467 15.4352C9.8199 15.3791 9.8625 15.3012 9.87454 15.216L10.1475 13.291C10.5855 13.1091 10.9979 12.8707 11.3741 12.582L13.1857 13.3123C13.2659 13.3448 13.3552 13.347 13.4368 13.3182C13.5184 13.2895 13.5867 13.2319 13.6288 13.1563L15.0823 10.6357C15.1273 10.5609 15.1431 10.4722 15.1268 10.3866C15.1104 10.3009 15.063 10.2242 14.9937 10.1713L13.4729 8.96949ZM8.07361 10.8059C7.57003 10.8066 7.07755 10.6579 6.65849 10.3786C6.23944 10.0993 5.91263 9.70205 5.71943 9.237C5.52623 8.77195 5.47532 8.26005 5.57314 7.76605C5.67095 7.27206 5.9131 6.81818 6.26894 6.46184C6.62478 6.1055 7.07832 5.86272 7.57218 5.76422C8.06603 5.66572 8.57801 5.71592 9.04333 5.90847C9.50865 6.10102 9.9064 6.42727 10.1862 6.84594C10.4661 7.2646 10.6155 7.75687 10.6155 8.26046C10.6159 8.59456 10.5505 8.92548 10.423 9.23428C10.2955 9.54308 10.1083 9.82371 9.87223 10.0601C9.63615 10.2965 9.35578 10.4841 9.04716 10.612C8.73854 10.74 8.40771 10.8059 8.07361 10.8059V10.8059Z" stroke="#FF6A6A" stroke-width="1.5" stroke-linecap="round" stroke-linejoin="round"/>
</svg>
