<?xml version="1.0" standalone="no"?>
<!DOCTYPE svg PUBLIC "-//W3C//DTD SVG 20010904//EN"
 "http://www.w3.org/TR/2001/REC-SVG-20010904/DTD/svg10.dtd">
<svg version="1.0" xmlns="http://www.w3.org/2000/svg"
 width="512.000000pt" height="512.000000pt" viewBox="0 0 512.000000 512.000000"
 preserveAspectRatio="xMidYMid meet">

<g transform="translate(0.000000,512.000000) scale(0.100000,-0.100000)"
fill="#000000" stroke="none">
<path d="M3315 5110 c-144 -23 -328 -98 -450 -185 -74 -53 -214 -197 -259
-267 -125 -196 -171 -356 -171 -598 0 -138 3 -166 28 -253 50 -182 136 -326
280 -474 48 -49 59 -65 49 -75 -8 -8 -12 -53 -12 -140 l0 -128 -45 0 -45 0 0
-536 0 -537 -123 120 c-139 135 -186 161 -308 170 -70 6 -163 -14 -209 -45
-22 -15 -70 -18 -375 -22 l-350 -5 -3 -87 -3 -88 277 0 c259 0 276 -1 269 -17
-9 -23 -25 -122 -22 -137 1 -8 -70 -12 -260 -14 l-263 -2 0 -85 0 -85 295 0
c218 0 295 -3 295 -12 0 -6 109 -121 242 -255 l242 -243 -112 0 -112 0 0 -90
0 -90 -80 0 -80 0 0 90 0 90 -345 0 -345 0 0 -90 0 -91 -82 3 -83 3 -3 1254
c-2 1191 -1 1253 15 1246 75 -31 69 -32 156 11 l82 41 80 -38 c43 -22 86 -39
94 -39 8 0 50 16 93 37 l78 36 78 -36 c43 -21 85 -37 93 -37 8 0 47 16 88 35
40 19 78 35 85 35 7 0 43 -16 82 -35 38 -19 76 -35 84 -35 24 0 120 48 120 60
0 14 -69 150 -76 150 -3 0 -14 -5 -24 -10 -15 -8 -35 -3 -90 25 -38 19 -83 35
-100 35 -17 0 -62 -16 -100 -35 l-70 -35 -70 35 c-38 19 -83 35 -100 35 -17 0
-62 -16 -100 -35 l-70 -35 -70 35 c-38 19 -83 35 -100 35 -17 0 -63 -16 -102
-36 l-72 -36 -71 36 c-83 43 -126 46 -160 11 l-25 -24 0 -1088 0 -1088 -78
-78 c-42 -42 -81 -77 -85 -77 -4 0 -7 612 -7 1360 l0 1360 731 0 732 0 -7 61
c-3 34 -6 73 -6 85 l0 24 -725 0 -725 0 0 58 c0 62 24 125 58 155 51 46 59 46
790 47 l692 0 0 85 0 86 -722 -3 -723 -3 -62 -29 c-73 -33 -143 -103 -176
-173 l-22 -48 0 -1965 0 -1965 22 -47 c30 -66 105 -143 172 -175 l56 -28 736
-3 735 -3 -4 -84 -5 -85 90 0 90 0 6 133 c10 246 84 431 251 621 99 113 126
70 -341 539 -442 444 -440 441 -431 552 9 109 95 185 210 185 32 0 75 -7 96
-15 26 -11 169 -150 466 -451 l429 -435 64 63 63 62 -75 76 -75 76 2 344 3
345 108 -105 c132 -128 188 -200 237 -305 75 -159 73 -134 77 -952 l4 -733 85
0 85 0 -4 748 c-3 731 -4 749 -25 830 -58 219 -127 324 -381 577 l-191 190 0
277 0 278 -45 0 -45 0 0 100 c0 55 3 100 6 100 3 0 42 -10 87 -22 70 -19 107
-22 257 -22 148 0 187 4 253 22 362 100 638 377 734 737 23 88 27 119 27 260
0 136 -3 173 -23 249 -100 385 -390 675 -766 767 -93 23 -282 32 -370 19z
m369 -219 c301 -89 517 -312 598 -615 30 -113 30 -316 -1 -431 -93 -347 -383
-601 -737 -644 -296 -36 -607 109 -784 365 -244 353 -197 826 111 1120 126
119 261 189 434 223 81 16 299 6 379 -18z m-1226 -4343 c-11 -29 -31 -87 -43
-128 l-23 -75 -708 -3 c-471 -2 -721 1 -745 8 -82 23 -128 93 -129 193 l0 57
835 0 835 0 -22 -52z"/>
<path d="M3370 4696 l0 -83 -72 -5 c-84 -6 -135 -28 -190 -83 -51 -51 -71 -99
-76 -178 -7 -107 41 -200 132 -256 17 -11 135 -46 261 -77 241 -61 267 -72
281 -128 9 -37 -3 -74 -33 -102 -25 -24 -26 -24 -292 -26 l-266 -3 -3 -87 -3
-88 131 0 130 0 0 -85 0 -85 85 0 85 0 0 85 0 85 48 0 c105 0 189 43 248 126
65 92 66 214 1 311 -51 77 -103 101 -351 162 -234 58 -268 74 -281 131 -10 46
22 102 65 117 23 8 118 12 283 12 l247 1 0 85 0 85 -130 0 -130 0 0 85 0 85
-85 0 -85 0 0 -84z"/>
<path d="M1580 3070 l0 -90 383 2 382 3 3 88 3 87 -386 0 -385 0 0 -90z"/>
<path d="M1320 2730 l0 -90 343 2 342 3 3 88 3 87 -346 0 -345 0 0 -90z"/>
<path d="M2174 2807 c-3 -8 -4 -47 -2 -88 l3 -74 173 -3 172 -2 0 90 0 90
-170 0 c-134 0 -172 -3 -176 -13z"/>
<path d="M1320 2390 l0 -90 345 0 346 0 -3 88 -3 87 -342 3 -343 2 0 -90z"/>
<path d="M2174 2467 c-3 -8 -4 -47 -2 -88 l3 -74 173 -3 172 -2 0 90 0 90
-170 0 c-134 0 -172 -3 -176 -13z"/>
<path d="M1320 1365 l0 -85 345 0 345 0 0 85 0 85 -345 0 -345 0 0 -85z"/>
</g>
</svg>
